# xmcd
#
# Track frame offsets:
#	150
#	13563
#	23913
#	38688
#	51213
#	66963
#	78288
#	93813
#	104463
#	119163
#	136038
#	151563
#	163563
#	180138
#	193113
#	207813
#
# Disc length: 3008 seconds
#
# Revision: 1
# Processed by: cddbd v1.4PL0 Copyright (c) Steve Scherf et al.
# Submitted via: MusicWizard 6.0.2
#
DISCID=bf0bbe10
DTITLE=Alpenrebellen - Wo Sind Die  Männer Geblieben ?
DYEAR=1900
DGENRE=Volksmusik
TTITLE0=Wo Sind Die Männer Geblieben
TTITLE1=Gehn Wann Man Will
TTITLE2=Bei Uns Gibt's Nix Zu Erben
TTITLE3=Ist Mir Schnurz
TTITLE4=Latin Lover
TTITLE5=Pannen, Pech Und Pleiten
TTITLE6=Wilde Hund
TTITLE7=Komm Und Tanz
TTITLE8=Reden Ist Silber, Geigen Ist Gold
TTITLE9=Irgendwann
TTITLE10=Luderalarm
TTITLE11=Wolkenschieben
TTITLE12=Mach Es Mir
TTITLE13=Butterbrot
TTITLE14=Hey-Ba-Ba-Riba
TTITLE15=Fürstenfeld
EXTD=
EXTT0=
EXTT1=
EXTT2=
EXTT3=
EXTT4=
EXTT5=
EXTT6=
EXTT7=
EXTT8=
EXTT9=
EXTT10=
EXTT11=
EXTT12=
EXTT13=
EXTT14=
EXTT15=
PLAYORDER=
